<svg width="92" height="32" viewBox="0 0 92 32" fill="none" xmlns="http://www.w3.org/2000/svg">
<g clip-path="url(#clip0_875_186)">
<path d="M5.2643 22.6848C5.65097 23.7109 6.1863 24.5883 6.8704 25.3169C7.5545 26.0456 8.36495 26.6033 9.30176 26.9899C10.2387 27.3766 11.2573 27.5699 12.3578 27.5699C13.4286 27.5699 14.4323 27.3691 15.3692 26.9675C16.3061 26.566 17.124 26.0009 17.8229 25.2723C18.5218 24.5436 19.0646 23.6737 19.4513 22.6624C19.838 21.6512 20.0313 20.5211 20.0313 19.2719V-0.000976562H24.7156V31.2281H20.0759V28.3282C19.0349 29.4286 17.808 30.2763 16.3953 30.8712C14.9824 31.466 13.4583 31.7634 11.8225 31.7634C10.1568 31.7634 8.60286 31.4734 7.16033 30.8934C5.7179 30.3135 4.46865 29.4882 3.41289 28.4175C2.35713 27.3467 1.52427 26.0605 0.914599 24.5585C0.304834 23.0565 0 21.3836 0 19.5395V-0.000976562H4.68435V19.2719C4.68435 20.5211 4.87763 21.6586 5.2643 22.6848Z" fill="white"/>
<path d="M32.7949 -0.000976562V11.3753C33.8359 10.3343 35.0405 9.50908 36.4086 8.89932C37.7767 8.28955 39.2639 7.98472 40.8699 7.98472C42.5355 7.98472 44.0968 8.29696 45.5542 8.92153C47.0115 9.5461 48.2755 10.3938 49.3463 11.4645C50.417 12.5353 51.2647 13.7993 51.8893 15.2566C52.5138 16.714 52.8261 18.2606 52.8261 19.8964C52.8261 21.5321 52.5138 23.0713 51.8893 24.5138C51.2647 25.9563 50.417 27.2129 49.3463 28.2835C48.2755 29.3543 47.0115 30.2019 45.5542 30.8265C44.0968 31.4511 42.5354 31.7633 40.8699 31.7633C39.2638 31.7633 37.7693 31.4585 36.3863 30.8487C35.0033 30.2391 33.7913 29.4137 32.7503 28.3727V31.228H28.2891V-0.000976562H32.7949ZM33.308 22.9747C33.7094 23.9265 34.2672 24.7593 34.981 25.4731C35.6948 26.1869 36.5276 26.752 37.4793 27.1684C38.4311 27.5848 39.4571 27.793 40.5576 27.793C41.6284 27.793 42.6395 27.5848 43.5912 27.1684C44.543 26.752 45.3682 26.187 46.0673 25.4731C46.7662 24.7594 47.3239 23.9265 47.7403 22.9747C48.1566 22.023 48.3648 20.9969 48.3648 19.8964C48.3648 18.7959 48.1566 17.7624 47.7403 16.7958C47.3239 15.8292 46.7662 14.989 46.0673 14.2752C45.3683 13.5615 44.5431 13.0037 43.5912 12.6022C42.6394 12.2008 41.6283 11.9999 40.5576 11.9999C39.487 11.9999 38.4757 12.2007 37.524 12.6022C36.5723 13.0038 35.7395 13.5615 35.0256 14.2752C34.3119 14.989 33.7467 15.8292 33.3304 16.7958C32.914 17.7624 32.7058 18.7959 32.7058 19.8964C32.7057 20.9969 32.9065 22.023 33.308 22.9747Z" fill="white"/>
<path d="M55.3608 15.3011C55.9556 13.8735 56.7737 12.6169 57.8145 11.5313C58.8554 10.4458 60.0898 9.59068 61.5174 8.96611C62.9451 8.34153 64.4916 8.0293 66.1572 8.0293C67.793 8.0293 69.3098 8.32673 70.7077 8.92149C72.1056 9.51635 73.3101 10.3417 74.3213 11.3976C75.3326 12.4533 76.1208 13.7026 76.6858 15.145C77.2509 16.5875 77.5334 18.1564 77.5334 19.8518V21.324H59.0191C59.1679 22.246 59.4653 23.1011 59.9114 23.8891C60.3576 24.6773 60.9152 25.3614 61.5844 25.9413C62.2536 26.5214 63.012 26.975 63.8597 27.302C64.7073 27.6292 65.6069 27.7928 66.5587 27.7928C69.2653 27.7928 71.4514 26.6775 73.1169 24.4468L76.3736 26.8558C75.2434 28.3727 73.8456 29.5624 72.1801 30.4249C70.5145 31.2874 68.6407 31.7187 66.5588 31.7187C64.8635 31.7187 63.2798 31.4211 61.8076 30.8264C60.3353 30.2316 59.0565 29.3987 57.9709 28.328C56.8853 27.2572 56.0302 26.0007 55.4057 24.5582C54.7811 23.1158 54.4688 21.5468 54.4688 19.8516C54.4686 18.2456 54.7661 16.7287 55.3608 15.3011ZM61.629 13.5388C60.3649 14.5947 59.5248 16 59.1084 17.7548H72.983C72.5964 16 71.771 14.5947 70.507 13.5388C69.2429 12.483 67.7633 11.9551 66.068 11.9551C64.3727 11.9551 62.893 12.483 61.629 13.5388Z" fill="white"/>
<path d="M85.9727 14.052C85.0209 15.0929 84.545 16.5057 84.545 18.2902V31.2281H80.0391V8.47545H84.5003V11.2861C85.0655 10.3641 85.8016 9.63536 86.7087 9.10003C87.6158 8.56459 88.6939 8.29688 89.9432 8.29688H91.5046V12.4905H89.6309C88.1438 12.4906 86.9244 13.011 85.9727 14.052Z" fill="white"/>
</g>
<defs>
<clipPath id="clip0_875_186">
<rect width="91.5" height="31.7644" fill="white"/>
</clipPath>
</defs>
</svg>
