<svg width="93" height="38" viewBox="0 0 93 38" fill="none" xmlns="http://www.w3.org/2000/svg">
<path d="M8.34641 2.18945H1.84375V8.69209H8.34641V2.18945Z" fill="white"/>
<path d="M8.17116 36.0681V12.6493H2.01562V36.0681H8.17116ZM49.0847 36.2995V30.5605C48.1822 30.5605 47.4185 30.5142 46.8631 30.4217C46.2152 30.3291 45.7292 30.0977 45.4052 29.7737C45.0813 29.4497 44.873 28.9869 44.7573 28.3853C44.6647 27.8067 44.6184 27.0431 44.6184 26.1174V17.9255H49.0847V12.6493H44.6184V3.50862H38.4398V26.1637C38.4398 28.0844 38.6017 29.7043 38.9257 31.0002C39.2497 32.2729 39.8051 33.3143 40.5687 34.1011C41.3324 34.8879 42.3506 35.4433 43.5771 35.7904C44.8267 36.1375 46.4003 36.2995 48.2747 36.2995H49.0847ZM84.4443 36.0681V1.70361H78.2656V36.0681H84.4443ZM32.4925 14.9403C30.78 13.089 28.3734 12.1634 25.3187 12.1634C23.8377 12.1634 22.4955 12.4642 21.269 13.0659C20.0657 13.6675 19.0244 14.5006 18.2144 15.5651L17.8673 16.0048V15.6114V12.6493H11.7812V36.0681H17.9136V23.5951V24.4513C17.9136 24.3124 17.9136 24.1736 17.9136 24.0347C17.983 21.8363 18.5152 20.2165 19.5335 19.1751C20.6211 18.0643 21.9401 17.509 23.4443 17.509C25.2262 17.509 26.5915 18.0643 27.494 19.1288C28.3734 20.1933 28.8362 21.6975 28.8362 23.6182V23.6645V36.0449H35.0612V22.762C35.0843 19.4297 34.2049 16.7916 32.4925 14.9403ZM75.0722 24.3124C75.0722 22.6231 74.7713 21.0495 74.1928 19.5685C73.5911 18.1106 72.758 16.8147 71.7167 15.704C70.6522 14.5932 69.3794 13.737 67.8984 13.1122C66.4174 12.4873 64.7744 12.1865 62.9925 12.1865C61.3032 12.1865 59.7064 12.5105 58.2254 13.1353C56.7444 13.7832 55.4485 14.6395 54.3608 15.7271C53.2732 16.8147 52.3939 18.1106 51.769 19.5916C51.1211 21.0727 50.8203 22.6694 50.8203 24.3587C50.8203 26.048 51.1211 27.6447 51.7228 29.1258C52.3244 30.6068 53.1807 31.9027 54.2451 32.9903C55.3096 34.0779 56.6287 34.9573 58.156 35.5821C59.6833 36.2301 61.3726 36.554 63.1776 36.554C68.4075 36.554 71.6473 34.1705 73.5911 31.949L69.148 28.5704C68.2224 29.6811 66.0008 31.1853 63.2239 31.1853C61.4883 31.1853 60.0536 30.7919 58.9659 29.982C57.8783 29.1952 57.1378 28.0844 56.7444 26.7191L56.675 26.5108H75.0722V24.3124ZM56.7212 22.1603C56.7212 20.4479 58.6882 17.4627 62.9231 17.4395C67.1579 17.4395 69.148 20.4247 69.148 22.1372L56.7212 22.1603Z" fill="white"/>
<path d="M91.4755 33.013C91.3598 32.7353 91.1978 32.5039 90.9896 32.2956C90.7813 32.0873 90.5499 31.9253 90.2722 31.8096C89.9945 31.6939 89.6937 31.6245 89.3928 31.6245C89.0689 31.6245 88.7912 31.6939 88.5135 31.8096C88.2358 31.9253 88.0044 32.0873 87.7961 32.2956C87.5878 32.5039 87.4258 32.7353 87.3101 33.013C87.1944 33.2907 87.125 33.5915 87.125 33.8923C87.125 34.2163 87.1944 34.494 87.3101 34.7717C87.4258 35.0494 87.5878 35.2808 87.7961 35.4891C88.0044 35.6973 88.2358 35.8593 88.5135 35.975C88.7912 36.0907 89.092 36.1602 89.3928 36.1602C89.7168 36.1602 89.9945 36.0907 90.2722 35.975C90.5499 35.8593 90.7813 35.6973 90.9896 35.4891C91.1978 35.2808 91.3598 35.0494 91.4755 34.7717C91.5912 34.494 91.6607 34.1932 91.6607 33.8923C91.6607 33.5915 91.5912 33.2907 91.4755 33.013ZM91.1053 34.6328C91.0127 34.8643 90.8739 35.0725 90.7119 35.2345C90.5499 35.3965 90.3416 35.5354 90.1102 35.6279C89.8788 35.7205 89.6474 35.7668 89.3697 35.7668C89.1151 35.7668 88.8606 35.7205 88.6292 35.6279C88.3978 35.5354 88.1895 35.3965 88.0275 35.2345C87.8655 35.0725 87.7267 34.8643 87.6341 34.6328C87.5415 34.4014 87.4953 34.17 87.4953 33.8923C87.4953 33.6378 87.5415 33.3832 87.6341 33.1518C87.7267 32.9204 87.8655 32.7121 88.0275 32.5502C88.1895 32.3882 88.3978 32.2493 88.6292 32.1568C88.8606 32.0642 89.092 32.0179 89.3697 32.0179C89.6242 32.0179 89.8788 32.0642 90.1102 32.1568C90.3416 32.2493 90.5499 32.3882 90.7119 32.5502C90.8739 32.7121 91.0127 32.9204 91.1053 33.1518C91.1978 33.3832 91.2441 33.6146 91.2441 33.8923C91.2673 34.17 91.1978 34.4014 91.1053 34.6328ZM89.8094 34.0775C89.9945 34.0543 90.1333 33.9849 90.2491 33.8692C90.3648 33.7535 90.4342 33.5915 90.4342 33.3601C90.4342 33.1055 90.3648 32.9204 90.2028 32.7816C90.0639 32.6427 89.8094 32.5733 89.5085 32.5733H88.4903V35.1882H88.9763V34.1237H89.3234L89.9714 35.1882H90.4805L89.8094 34.0775ZM89.5548 33.7072C89.4854 33.7072 89.416 33.7072 89.3234 33.7072H88.9763V32.9667H89.3234C89.3928 32.9667 89.4623 32.9667 89.5548 32.9667C89.6242 32.9667 89.6937 32.9898 89.7631 33.013C89.8325 33.0361 89.8788 33.0824 89.9019 33.1287C89.9251 33.175 89.9482 33.2444 89.9482 33.337C89.9482 33.4295 89.9251 33.4989 89.9019 33.5452C89.8557 33.5915 89.8094 33.6378 89.7631 33.6609C89.6937 33.6841 89.6242 33.7072 89.5548 33.7072Z" fill="white"/>
</svg>
