<svg width="110" height="61" viewBox="0 0 110 61" fill="none" xmlns="http://www.w3.org/2000/svg">
<g clip-path="url(#clip0_875_192)">
<mask id="mask0_875_192" style="mask-type:luminance" maskUnits="userSpaceOnUse" x="0" y="0" width="110" height="61">
<path d="M0.359375 60.0908H109.351V0.366674H0.359375V60.0908Z" fill="white"/>
</mask>
<g mask="url(#mask0_875_192)">
<path d="M0.351562 59.7588H2.79413V54.9094C2.79413 54.0457 2.79413 52.9802 3.23652 52.3561C3.6767 51.6775 4.46723 51.4569 4.90851 51.4569C6.96635 51.4569 6.96635 53.8827 6.96635 54.7253V59.7588H9.40781V54.2486C9.40781 53.457 9.40781 51.7507 8.47203 50.6309C7.62827 49.601 6.28558 49.2129 5.40523 49.2129C3.86075 49.2129 3.01588 50.0611 2.6123 50.4469V49.5621H0.351562V59.7588Z" fill="white"/>
<path fill-rule="evenodd" clip-rule="evenodd" d="M20.5144 55.7542C20.5843 55.425 20.6608 55.0014 20.6608 54.5247C20.6608 51.9548 18.6207 49.1575 15.3876 49.1575C12.2454 49.1575 10.0234 51.8062 10.0234 54.6888C10.0234 57.6634 12.3751 60.0903 15.4064 60.0903C17.7946 60.0903 19.7405 58.3841 20.3292 56.5458H17.7558C17.2979 57.3907 16.4908 57.8486 15.4064 57.8486C13.6612 57.8486 12.7055 56.4161 12.5946 55.7542H20.5144ZM12.5214 53.7885C12.9805 51.896 14.5061 51.4004 15.4064 51.4004C16.6194 51.4004 17.8856 52.1532 18.1616 53.7885H12.5214" fill="white"/>
<path d="M23.8005 59.7588H25.304L27.2343 53.1466H27.2698L29.1824 59.7588H30.688L34.4168 49.5621H31.809L29.933 55.7908H29.8975L28.2421 49.5621H26.2974L24.6254 55.7908H24.5888L22.7339 49.5621H20.125L23.8005 59.7588Z" fill="white"/>
<path fill-rule="evenodd" clip-rule="evenodd" d="M39.1406 59.7583H41.3803V58.5277C41.9846 59.2084 42.8516 60.0898 44.8174 60.0898C48.545 60.0898 49.8866 56.6551 49.8866 54.614C49.8866 51.9166 47.8665 49.2125 44.762 49.2125C43.6222 49.2125 42.427 49.6371 41.5821 50.483V46.1647H39.1406V59.7583ZM41.4346 54.5242C41.4346 53.0363 42.5922 51.4565 44.4659 51.4565C46.0104 51.4565 47.444 52.6483 47.444 54.6351C47.444 56.6163 46.1024 57.8492 44.5036 57.8492C43.0711 57.8492 41.4346 56.7837 41.4346 54.5242Z" fill="white"/>
<path fill-rule="evenodd" clip-rule="evenodd" d="M61.2983 49.5622H59.0553V50.8516H59.0187C58.9444 50.703 57.7126 49.2118 55.6392 49.2118C52.8108 49.2118 50.5312 51.4725 50.5312 54.5979C50.5312 57.9949 52.8652 60.0903 55.4929 60.0903C56.7768 60.0903 58.2847 59.4085 59.0553 58.4949V59.7588H61.2983V49.5622ZM58.9843 54.6356C58.9843 56.527 57.696 57.8486 56.0051 57.8486C54.2611 57.8486 52.9738 56.4339 52.9738 54.7076C52.9738 53.1832 54.0027 51.4569 56.0051 51.4569C57.4576 51.4569 58.9843 52.5213 58.9843 54.6356" fill="white"/>
<path d="M65.0363 46.1651H62.5938V59.7588H65.0363V46.1651Z" fill="white"/>
<path fill-rule="evenodd" clip-rule="evenodd" d="M76.5394 49.5627H74.2986V50.8521H74.2609C74.1866 50.7035 72.9548 49.2123 70.8814 49.2123C68.0497 49.2123 65.7734 51.473 65.7734 54.5984C65.7734 57.9954 68.1074 60.0908 70.734 60.0908C72.019 60.0908 73.5247 59.409 74.2986 58.4954V59.7593H76.5394V49.5627ZM74.2243 54.6361C74.2243 56.5275 72.9393 57.849 71.2484 57.849C69.5022 57.849 68.2171 56.4344 68.2171 54.7081C68.2171 53.1837 69.246 51.4574 71.2484 51.4574C72.6998 51.4574 74.2243 52.5218 74.2243 54.6361" fill="white"/>
<path d="M77.8438 59.7588H80.2852V54.9094C80.2852 54.0457 80.2852 52.9802 80.7276 52.3561C81.1678 51.6775 81.9605 51.4569 82.3996 51.4569C84.4563 51.4569 84.4563 53.8827 84.4563 54.7253V59.7588H86.9011V54.2486C86.9011 53.457 86.9011 51.7507 85.962 50.6309C85.1171 49.601 83.7778 49.2129 82.8952 49.2129C81.3507 49.2129 80.5081 50.0611 80.1023 50.4469V49.5621H77.8438V59.7588Z" fill="white"/>
<path d="M95.5748 56.4345C94.9306 57.4634 94.1245 57.8492 93.3163 57.8492C91.4769 57.8492 90.2473 56.3979 90.2473 54.6528C90.2473 52.5585 91.7175 51.4565 93.2043 51.4565C94.7111 51.4565 95.2821 52.4299 95.5748 52.9432H98.3322C97.2845 49.8012 94.4893 49.2125 93.2043 49.2125C90.3936 49.2125 87.8047 51.4942 87.8047 54.614C87.8047 57.9955 90.612 60.0898 93.2242 60.0898C95.6125 60.0898 97.5029 58.7117 98.3322 56.4345H95.5748Z" fill="white"/>
<path fill-rule="evenodd" clip-rule="evenodd" d="M109.202 55.7542C109.274 55.425 109.347 55.0014 109.347 54.5247C109.347 51.9548 107.309 49.1575 104.076 49.1575C100.934 49.1575 98.7109 51.8062 98.7109 54.6888C98.7109 57.6634 101.063 60.0903 104.094 60.0903C106.481 60.0903 108.43 58.3841 109.017 56.5458H106.446C105.985 57.3907 105.179 57.8486 104.094 57.8486C102.348 57.8486 101.393 56.4161 101.285 55.7542H109.202ZM101.21 53.7885C101.67 51.896 103.194 51.4004 104.094 51.4004C105.308 51.4004 106.574 52.1532 106.849 53.7885H101.21" fill="white"/>
<path fill-rule="evenodd" clip-rule="evenodd" d="M41.9352 25.962L38.6699 31.6008L20.5962 30.5841L22.4057 27.4432L41.9352 25.962ZM55.0007 7.99454L56.6383 14.2176L30.993 12.5324L32.8013 9.3926L55.0007 7.99454ZM37.9991 0.36674L53.0105 0.377825L54.1436 4.63299L36.193 3.50656L37.9991 0.36674V0.36674ZM36.6797 35.1076L34.0731 39.5889L15.3984 39.6089L17.2068 36.4702L36.6797 35.1076ZM69.4665 23.0173L64.9461 30.8524H69.2514C71.246 30.8524 74.8206 29.8568 75.9205 27.0164C76.9394 24.3766 75.0668 23.014 73.7596 23.014L69.4665 23.0173V23.0173ZM73.7773 15.5226L77.5326 15.4993C80.0317 15.486 82.6384 14.3429 83.5919 12.0235C84.4712 9.87155 83.2892 8.03889 81.7226 8.04554L78.0903 8.04111L73.7773 15.5226V15.5226ZM56.7791 14.2176L60.571 7.63976L73.4048 6.816L73.8527 6.01774L61.9813 5.18733L64.7576 0.36674L86.7729 0.365631C93.5429 0.365631 98.5511 2.78591 96.6042 9.90371C96.0188 12.0601 93.2669 17.4883 85.1963 19.7622C86.9093 19.9662 91.1758 21.8565 90.4407 26.7569C89.1346 35.4469 77.883 39.5834 71.6241 39.5856L45.6329 39.5978L44.3523 34.5699L57.9655 33.6098L58.4278 32.8137L43.6626 31.9146L42.0716 25.9542L63.0812 24.728L63.538 23.9386L25.7929 21.5572L27.6013 18.4185L68.2302 15.7809L68.6904 14.9904L56.7791 14.2176" fill="white"/>
</g>
</g>
<defs>
<clipPath id="clip0_875_192">
<rect width="109.723" height="60.4556" fill="white"/>
</clipPath>
</defs>
</svg>
